<?xml version="1.0" standalone="no"?>
<!DOCTYPE svg PUBLIC "-//W3C//DTD SVG 20010904//EN"
 "http://www.w3.org/TR/2001/REC-SVG-20010904/DTD/svg10.dtd">
<svg version="1.0" xmlns="http://www.w3.org/2000/svg"
 width="1200.000000pt" height="600.000000pt" viewBox="0 0 1200.000000 600.000000"
 preserveAspectRatio="xMidYMid meet">

<g transform="translate(0.000000,600.000000) scale(0.100000,-0.100000)"
fill="#312f28" stroke="none">
<path d="M0 3005 l0 -2995 6000 0 6000 0 0 2995 0 2995 -6000 0 -6000 0 0
-2995z m7860 1463 c0 -6 -40 -84 -89 -172 -49 -89 -96 -176 -105 -193 l-17
-33 96 0 95 0 0 80 0 81 58 -3 57 -3 3 -77 3 -78 50 0 51 0 -4 -52 -3 -53 -48
-3 -47 -3 0 -78 c0 -76 -1 -79 -26 -85 -14 -4 -41 -4 -60 0 l-34 6 0 79 0 79
-165 0 -165 0 0 43 c0 36 16 73 96 218 159 289 136 259 199 259 36 0 55 -4 55
-12z m627 -17 c55 -27 98 -82 123 -154 28 -84 24 -266 -8 -348 -49 -125 -173
-183 -305 -145 -106 31 -160 111 -180 265 -13 107 6 225 48 297 28 48 85 91
137 105 51 13 140 3 185 -20z m557 21 c4 -6 -113 -227 -190 -359 l-25 -43 96
0 95 0 0 80 0 81 58 -3 57 -3 3 -77 3 -78 49 0 50 0 0 -55 0 -55 -50 0 -50 0
0 -79 c0 -85 -4 -91 -60 -91 -56 0 -60 6 -60 91 l0 79 -162 2 -163 3 -3 37
c-3 32 13 67 104 230 143 258 135 248 194 248 27 0 51 -3 54 -8z m-5561 -403
c255 -40 488 -211 611 -449 77 -149 98 -260 112 -592 3 -87 10 -158 15 -158
28 0 241 -32 260 -38 22 -9 22 -9 -6 -16 -21 -5 -25 -10 -16 -19 6 -6 11 -23
11 -39 0 -35 -30 -52 -80 -45 -35 4 -37 3 -32 -20 l5 -25 91 5 91 6 -60 -20
c-33 -11 -109 -28 -170 -37 l-110 -17 -7 -155 c-10 -198 -41 -499 -73 -710
-39 -246 -92 -506 -114 -548 -39 -77 -107 -113 -165 -88 -77 33 -107 110 -88
228 13 87 3 147 -33 194 -77 100 -223 38 -254 -107 -27 -125 -100 -179 -190
-143 -71 28 -107 104 -93 195 10 70 -1 133 -33 174 -77 102 -226 48 -255 -91
-17 -81 -69 -134 -129 -134 -23 0 -55 7 -70 15 -38 19 -78 68 -86 104 -3 16 5
107 19 202 29 205 58 529 47 529 -3 0 -46 -40 -95 -89 -127 -124 -200 -157
-246 -111 -72 72 48 311 291 578 66 73 62 26 33 356 -22 250 -16 409 20 531
43 143 97 238 190 331 169 169 377 239 609 203z m5535 -458 c-2 -9 -11 -17
-21 -19 -21 -4 -35 27 -17 38 19 12 42 0 38 -19z m-198 -15 c0 -34 0 -34 39
-29 31 4 43 1 60 -16 19 -19 21 -31 19 -84 -3 -54 -5 -62 -23 -62 -17 0 -21 8
-25 60 -4 48 -9 61 -24 63 -28 6 -40 -13 -46 -71 -4 -44 -8 -52 -25 -52 -19 0
-20 8 -23 113 l-3 112 26 0 c22 0 25 -4 25 -34z m-118 -8 c2 -15 11 -24 26
-26 31 -5 28 -32 -4 -32 -23 0 -25 -3 -22 -42 2 -36 7 -44 26 -46 12 -2 22
-10 22 -18 0 -19 -43 -28 -69 -14 -17 9 -21 20 -21 62 0 37 -5 54 -17 64 -17
12 -17 13 0 19 9 4 17 18 17 31 0 32 37 34 42 2z m-1210 -48 c25 -26 29 -36
24 -62 -8 -42 -32 -66 -71 -74 -37 -7 -89 15 -99 41 -37 97 73 168 146 95z
m183 5 c31 -31 34 -86 5 -115 -31 -31 -69 -36 -109 -14 -32 17 -36 24 -39 65
-3 41 1 50 24 68 37 29 88 28 119 -4z m206 -1 c61 -65 -13 -176 -91 -134 -16
8 -18 6 -16 -25 1 -34 -15 -52 -35 -39 -5 3 -9 54 -9 113 l0 108 64 1 c55 1
66 -2 87 -24z m148 17 c8 -5 11 -16 8 -25 -5 -13 -11 -14 -33 -6 -42 16 -54
-5 -13 -23 50 -20 65 -42 51 -72 -12 -27 -49 -41 -84 -31 -64 17 -61 50 3 40
50 -8 51 8 2 33 -66 32 -52 93 21 93 17 0 37 -4 45 -9z m385 -10 c13 -14 16
-34 14 -82 -3 -56 -5 -64 -23 -64 -17 0 -21 8 -25 60 -4 49 -8 60 -24 63 -29
6 -46 -25 -46 -81 0 -44 -2 -48 -22 -45 -13 2 -22 6 -20 11 1 4 2 40 2 81 l0
73 64 1 c50 1 67 -3 80 -17z m187 -10 c34 -35 37 -68 9 -104 -36 -46 -111 -45
-147 2 -21 27 -15 79 12 106 35 36 88 34 126 -4z m417 -53 c-3 -75 -5 -83 -23
-83 -18 0 -20 8 -23 83 l-3 82 26 0 26 0 -3 -82z m187 59 c9 -14 15 -44 15
-84 0 -56 -2 -63 -20 -63 -21 0 -23 6 -20 57 2 41 -16 73 -41 73 -24 0 -41
-41 -37 -90 3 -30 0 -35 -20 -38 -21 -3 -22 -1 -22 81 l0 84 65 1 c56 1 66 -2
80 -21z m207 -56 c-4 -109 -8 -120 -48 -137 -27 -11 -43 -12 -74 -4 -42 11
-47 19 -28 38 8 8 17 8 30 1 25 -13 68 -3 68 16 0 10 -9 12 -34 8 -72 -11
-114 80 -62 132 20 20 33 23 87 23 l64 0 -3 -77z m-1313 -50 c17 -11 7 -41
-13 -41 -19 0 -29 17 -22 35 6 17 15 18 35 6z m69 -14 c4 -22 -27 -35 -38 -16
-10 15 7 42 24 36 6 -2 12 -11 14 -20z m70 0 c4 -20 -25 -34 -40 -19 -15 15
-1 44 19 40 10 -2 19 -11 21 -21z m332 -192 l0 -33 44 5 c39 5 46 2 61 -20 11
-18 15 -42 13 -84 -3 -50 -6 -58 -23 -58 -17 0 -21 8 -25 60 -4 51 -8 60 -26
63 -30 4 -42 -16 -46 -73 -3 -42 -6 -50 -23 -50 -19 0 -20 8 -23 104 -3 121
-1 131 27 124 16 -4 21 -13 21 -38z m-973 -5 c3 -11 14 -20 24 -20 12 0 19 -7
19 -20 0 -13 -7 -20 -20 -20 -17 0 -20 -7 -20 -46 0 -36 3 -45 14 -41 8 3 20
-1 26 -8 19 -23 -32 -43 -65 -25 -22 12 -25 20 -25 67 0 29 -4 53 -10 53 -5 0
-10 9 -10 20 0 11 5 20 10 20 6 0 10 9 10 20 0 14 7 20 21 20 12 0 23 -8 26
-20z m201 -40 c45 -42 36 -107 -18 -135 -89 -46 -175 61 -105 130 31 32 91 34
123 5z m250 -4 c4 -17 0 -18 -32 -13 -50 8 -55 -10 -7 -29 93 -37 40 -125 -56
-93 -46 15 -37 35 16 31 51 -4 53 11 4 35 -72 34 -49 97 32 91 30 -2 41 -8 43
-22z m162 4 c11 -11 20 -33 20 -50 l0 -30 -61 0 c-55 0 -60 -2 -48 -16 10 -12
23 -14 55 -9 56 8 67 -11 18 -31 -67 -28 -124 6 -124 75 0 31 6 44 26 60 34
27 88 27 114 1z m179 -4 c14 -15 21 -33 19 -48 -3 -21 -9 -23 -61 -26 -50 -3
-57 -5 -47 -18 14 -16 51 -19 66 -4 8 8 14 7 23 -3 17 -21 -13 -42 -61 -42
-31 0 -45 7 -64 28 -28 32 -30 56 -9 97 17 33 27 38 76 39 25 1 42 -6 58 -23z
m463 7 c10 -9 18 -30 18 -50 l0 -33 -55 0 c-30 0 -55 -4 -55 -9 0 -15 31 -22
65 -15 48 9 54 -13 9 -32 -67 -28 -124 6 -124 75 0 31 6 44 26 60 32 25 90 27
116 4z m148 -4 c0 -12 -7 -19 -20 -19 -25 0 -43 -42 -38 -87 3 -21 -1 -34 -10
-38 -26 -10 -32 6 -32 84 l0 79 50 0 c42 0 50 -3 50 -19z m139 4 c11 -10 24
-33 27 -50 l7 -33 -63 0 c-56 0 -61 -2 -49 -16 10 -12 23 -14 50 -10 21 3 40
2 43 -3 10 -16 -26 -36 -66 -36 -77 0 -116 88 -63 140 29 30 83 33 114 8z m89
-124 c4 -19 -27 -34 -41 -20 -14 14 0 43 20 39 10 -2 19 -10 21 -19z"/>
<path d="M8301 4354 c-41 -35 -61 -105 -61 -219 0 -114 20 -184 61 -219 55
-47 142 -28 173 37 41 88 42 275 1 361 -32 68 -118 87 -174 40z"/>
<path d="M3833 3455 c-101 -43 -96 -254 7 -323 90 -60 195 41 176 170 -17 113
-105 187 -183 153z"/>
<path d="M3395 3331 c-28 -12 -52 -40 -70 -84 -30 -71 -14 -156 42 -217 63
-70 142 -61 184 22 30 60 24 160 -13 214 -15 22 -36 44 -46 50 -27 17 -74 24
-97 15z"/>
<path d="M7391 3508 c-12 -32 -2 -57 25 -64 30 -8 54 11 54 40 0 47 -63 66
-79 24z"/>
<path d="M7579 3509 c-16 -31 3 -69 36 -69 31 0 51 40 35 71 -14 26 -56 25
-71 -2z"/>
<path d="M7785 3515 c-3 -8 -7 -22 -10 -30 -6 -20 23 -47 49 -43 27 4 45 51
26 72 -16 20 -59 21 -65 1z"/>
<path d="M8507 3523 c-4 -3 -7 -21 -7 -39 0 -28 5 -35 25 -40 42 -11 67 24 49
70 -6 16 -54 22 -67 9z"/>
<path d="M9305 3526 c-11 -8 -16 -22 -13 -41 2 -24 8 -31 30 -33 19 -2 30 3
38 17 20 39 -21 82 -55 57z"/>
<path d="M7707 3163 c-12 -12 -7 -60 8 -73 33 -27 73 8 61 53 -5 21 -12 27
-35 27 -15 0 -31 -3 -34 -7z"/>
<path d="M8133 3173 c-7 -2 -13 -11 -13 -19 0 -10 10 -14 35 -12 38 2 42 7 23
26 -13 13 -24 14 -45 5z"/>
<path d="M8301 3166 c-13 -15 4 -26 40 -26 23 0 25 25 3 34 -23 9 -30 8 -43
-8z"/>
<path d="M8773 3173 c-7 -2 -13 -11 -13 -19 0 -10 10 -14 35 -12 38 2 42 7 23
26 -13 13 -24 14 -45 5z"/>
<path d="M9061 3167 c-14 -18 -4 -27 31 -27 31 0 39 24 12 34 -23 9 -30 8 -43
-7z"/>
</g>
</svg>
