<?xml version="1.0" standalone="no"?>
<!DOCTYPE svg PUBLIC "-//W3C//DTD SVG 20010904//EN"
 "http://www.w3.org/TR/2001/REC-SVG-20010904/DTD/svg10.dtd">
<svg version="1.0" xmlns="http://www.w3.org/2000/svg"
 width="717.000000pt" height="348.000000pt" viewBox="0 0 717.000000 348.000000"
 preserveAspectRatio="xMidYMid meet">

<g transform="translate(0.000000,348.000000) scale(0.100000,-0.100000)"
fill="#fff" stroke="none">
<path d="M3511 2473 c-68 -36 -75 -57 -80 -224 -5 -213 2 -254 49 -301 36 -36
41 -38 103 -38 57 0 70 4 98 27 53 45 59 73 59 265 0 190 -8 221 -62 261 -38
28 -123 33 -167 10z m97 -95 c13 -13 18 -321 6 -352 -8 -22 -41 -20 -54 3 -6
11 -10 88 -10 178 0 157 5 183 35 183 6 0 16 -5 23 -12z"/>
<path d="M3165 2424 c-14 -31 -25 -58 -25 -60 0 -2 -23 -58 -51 -124 -36 -88
-49 -131 -47 -158 l3 -37 88 -3 87 -3 0 -58 c0 -65 2 -67 65 -66 l40 0 3 63
c3 58 4 62 27 62 23 0 25 4 25 45 0 41 -2 45 -25 45 l-25 0 -2 173 -3 172 -67
3 -68 3 -25 -57z m55 -201 l0 -93 -40 0 c-24 0 -40 5 -40 12 0 28 65 195 72
185 4 -7 8 -54 8 -104z"/>
<path d="M3871 2306 c-59 -142 -72 -181 -69 -217 l3 -44 83 -3 82 -3 0 -59 0
-60 55 0 55 0 0 60 c0 57 1 60 25 60 23 0 25 4 25 45 0 41 -2 45 -25 45 l-25
0 0 175 0 175 -69 0 -69 0 -71 -174z m99 -66 l0 -110 -41 0 c-35 0 -40 3 -36
18 12 40 71 202 74 202 2 0 3 -49 3 -110z"/>
<path d="M3010 1721 c0 -34 4 -61 10 -61 10 0 14 13 11 37 -1 6 9 13 21 15 18
2 23 9 23 33 0 27 -4 30 -32 33 l-33 3 0 -60z m50 25 c0 -17 -14 -29 -23 -20
-8 8 3 34 14 34 5 0 9 -6 9 -14z"/>
<path d="M3117 1772 c-12 -19 -19 -112 -9 -112 6 0 13 6 16 13 5 10 7 10 12 0
3 -7 11 -13 18 -13 11 0 11 11 2 57 -11 53 -27 76 -39 55z m23 -57 c0 -8 -4
-15 -10 -15 -5 0 -7 7 -4 15 4 8 8 15 10 15 2 0 4 -7 4 -15z"/>
<path d="M3202 1768 c-7 -7 -12 -33 -12 -59 0 -50 11 -62 49 -52 25 6 31 63 6
63 -9 0 -14 -8 -12 -21 1 -12 -4 -24 -10 -26 -9 -3 -13 9 -13 41 0 25 5 46 10
46 6 0 10 -4 10 -10 0 -5 7 -10 15 -10 8 0 15 4 15 8 0 12 -22 32 -35 32 -6 0
-16 -5 -23 -12z"/>
<path d="M3290 1720 c0 -59 0 -60 28 -59 16 1 20 3 10 6 -21 5 -24 33 -6 51 9
9 9 12 0 12 -7 0 -12 7 -12 15 0 8 7 15 15 15 8 0 15 5 15 10 0 6 -11 10 -25
10 -24 0 -25 -3 -25 -60z"/>
<path d="M3410 1720 c0 -58 19 -88 21 -32 l1 27 11 -27 c17 -44 27 -33 27 32
0 58 -19 88 -21 33 l-1 -28 -11 28 c-17 43 -27 32 -27 -33z"/>
<path d="M3512 1768 c-17 -17 -15 -93 3 -108 8 -6 23 -9 35 -5 17 5 20 15 20
60 0 39 -4 54 -16 59 -22 8 -28 8 -42 -6z m38 -53 c0 -25 -4 -45 -10 -45 -5 0
-10 20 -10 45 0 25 5 45 10 45 6 0 10 -20 10 -45z"/>
<path d="M3590 1770 c0 -5 5 -10 10 -10 6 0 10 -22 10 -50 0 -27 5 -50 10 -50
6 0 10 20 10 44 0 25 5 48 10 51 20 12 9 25 -20 25 -16 0 -30 -4 -30 -10z"/>
<path d="M3720 1720 c0 -48 3 -60 16 -60 10 0 14 6 10 15 -3 8 1 20 8 27 11
11 11 15 -3 25 -15 12 -15 14 2 27 24 18 21 26 -8 26 -24 0 -25 -3 -25 -60z"/>
<path d="M3802 1768 c-7 -7 -12 -31 -12 -55 0 -32 5 -45 19 -53 25 -13 27 -13
45 6 18 18 21 66 6 95 -12 21 -40 25 -58 7z m38 -53 c0 -25 -4 -45 -10 -45 -5
0 -10 20 -10 45 0 25 5 45 10 45 6 0 10 -20 10 -45z"/>
<path d="M3890 1726 c0 -59 16 -82 50 -71 17 5 20 15 20 66 0 33 -4 59 -10 59
-5 0 -10 -25 -10 -55 0 -30 -4 -55 -10 -55 -5 0 -10 25 -10 55 0 42 -3 55 -15
55 -11 0 -15 -13 -15 -54z"/>
<path d="M3990 1720 c0 -61 16 -83 22 -32 l4 27 12 -27 c19 -46 32 -32 32 32
0 61 -16 83 -22 33 l-4 -28 -14 28 c-21 42 -30 32 -30 -33z"/>
<path d="M4080 1720 l0 -60 34 0 c37 0 46 12 46 60 0 35 -23 60 -56 60 -23 0
-24 -3 -24 -60z m50 -5 c0 -25 -4 -45 -10 -45 -5 0 -10 20 -10 45 0 25 5 45
10 45 6 0 10 -20 10 -45z"/>
<path d="M3241 1494 c0 -11 3 -14 6 -6 3 7 2 16 -1 19 -3 4 -6 -2 -5 -13z"/>
<path d="M3551 1494 c0 -11 3 -14 6 -6 3 7 2 16 -1 19 -3 4 -6 -2 -5 -13z"/>
<path d="M4231 1494 c0 -11 3 -14 6 -6 3 7 2 16 -1 19 -3 4 -6 -2 -5 -13z"/>
<path d="M3302 1420 c0 -14 2 -19 5 -12 2 6 2 18 0 25 -3 6 -5 1 -5 -13z"/>
<path d="M3461 1414 c0 -11 3 -14 6 -6 3 7 2 16 -1 19 -3 4 -6 -2 -5 -13z"/>
<path d="M3353 1283 c9 -2 25 -2 35 0 9 3 1 5 -18 5 -19 0 -27 -2 -17 -5z"/>
<path d="M3477 1283 c18 -2 50 -2 70 0 21 2 7 4 -32 4 -38 0 -55 -2 -38 -4z"/>
<path d="M3788 1283 c18 -2 45 -2 60 0 15 2 0 4 -33 4 -33 0 -45 -2 -27 -4z"/>
<path d="M3421 1204 c0 -11 3 -14 6 -6 3 7 2 16 -1 19 -3 4 -6 -2 -5 -13z"/>
<path d="M3358 920 c-2 -44 0 -80 5 -80 4 0 7 36 7 80 0 44 -2 80 -4 80 -3 0
-6 -36 -8 -80z"/>
<path d="M3563 920 c0 -47 2 -66 4 -42 2 23 2 61 0 85 -2 23 -4 4 -4 -43z"/>
<path d="M3603 925 c0 -44 2 -61 4 -37 2 23 2 59 0 80 -2 20 -4 1 -4 -43z"/>
<path d="M3763 920 c0 -47 2 -66 4 -42 2 23 2 61 0 85 -2 23 -4 4 -4 -43z"/>
<path d="M3963 945 c0 -33 2 -45 4 -27 2 18 2 45 0 60 -2 15 -4 0 -4 -33z"/>
<path d="M3403 915 c0 -38 2 -53 4 -32 2 20 2 52 0 70 -2 17 -4 1 -4 -38z"/>
<path d="M3276 942 c-2 -4 -1 -14 5 -22 7 -12 9 -10 9 8 0 23 -5 28 -14 14z"/>
<path d="M3478 942 c-20 -4 -23 -17 -7 -28 12 -7 33 10 28 23 -2 5 -12 7 -21
5z"/>
<path d="M3667 943 c-10 -9 -9 -33 1 -33 4 0 8 9 8 20 0 23 0 22 -9 13z"/>
<path d="M3697 929 c4 -13 8 -18 11 -10 2 7 -1 18 -6 23 -8 8 -9 4 -5 -13z"/>
<path d="M3853 935 c-3 -9 -3 -19 1 -22 3 -4 6 1 6 10 0 8 6 18 13 20 9 4 9 6
-1 6 -7 1 -15 -6 -19 -14z"/>
<path d="M3880 919 c0 -5 5 -7 10 -4 6 3 10 8 10 11 0 2 -4 4 -10 4 -5 0 -10
-5 -10 -11z"/>
<path d="M3962 860 c0 -14 2 -19 5 -12 2 6 2 18 0 25 -3 6 -5 1 -5 -13z"/>
</g>
</svg>
