<svg xmlns="http://www.w3.org/2000/svg" version="1.1" xmlns:xlink="http://www.w3.org/1999/xlink" xmlns:svgjs="http://svgjs.dev/svgjs" width="2000" height="520" viewBox="0 0 2000 520"><g transform="matrix(1,0,0,1,-1.2121212121212466,-0.014357579717056979)"><svg viewBox="0 0 396 103" data-background-color="#ffffff" preserveAspectRatio="xMidYMid meet" height="520" width="2000" xmlns="http://www.w3.org/2000/svg" xmlns:xlink="http://www.w3.org/1999/xlink"><g id="tight-bounds" transform="matrix(1,0,0,1,0.2400000000000091,0.0028439052131830067)"><svg viewBox="0 0 395.52 102.99431218957362" height="102.99431218957362" width="395.52"><g><svg viewBox="0 0 656.460527431579 170.94382206315788" height="102.99431218957362" width="395.52"><g transform="matrix(1,0,0,1,260.94052743157897,50.50612155789474)"><svg viewBox="0 0 395.52 69.93157894736841" height="69.93157894736841" width="395.52"><g id="textblocktransform"><svg viewBox="0 0 395.52 69.93157894736841" height="69.93157894736841" width="395.52" id="textblock"><g><svg viewBox="0 0 395.52 69.93157894736841" height="69.93157894736841" width="395.52"><g transform="matrix(1,0,0,1,0,0)"><svg width="395.52" viewBox="2.7 -33.5 243.18 43" height="69.93157894736841" data-palette-color="#0718c4"><path d="M12.85-2.75L12.85-2.75Q16.2-2.75 17.93-4.28 19.65-5.8 19.65-8.2L19.65-8.2Q19.65-10.25 18.32-11.6 17-12.95 14.15-13.75L14.15-13.75 9.8-15.05Q7.7-15.7 6.15-16.73 4.6-17.75 3.78-19.28 2.95-20.8 2.95-22.85L2.95-22.85Q2.95-26.7 5.75-28.88 8.55-31.05 13.2-31.05L13.2-31.05Q15.9-31.05 18.03-30.48 20.15-29.9 21.38-29 22.6-28.1 22.6-27.1L22.6-27.1Q22.6-26.45 22.25-25.93 21.9-25.4 21.35-25.1L21.35-25.1Q20.1-26.1 17.98-26.85 15.85-27.6 13.35-27.6L13.35-27.6Q10.45-27.6 8.75-26.33 7.05-25.05 7.05-22.85L7.05-22.85Q7.05-21.1 8.28-20 9.5-18.9 12.25-18.1L12.25-18.1 15.3-17.2Q19.25-16.1 21.53-14 23.8-11.9 23.8-8.2L23.8-8.2Q23.8-4.25 20.93-1.8 18.05 0.65 12.85 0.65L12.85 0.65Q9.8 0.65 7.53-0.03 5.25-0.7 3.98-1.73 2.7-2.75 2.7-3.75L2.7-3.75Q2.7-4.6 3.23-5.18 3.75-5.75 4.45-6L4.45-6Q5.6-4.9 7.7-3.83 9.8-2.75 12.85-2.75ZM45.85-19.15L36.05-10.55 33.55-12.5 44.95-23.55Q46.15-23.5 46.82-22.98 47.5-22.45 47.5-21.6L47.5-21.6Q47.5-20.9 47.07-20.35 46.65-19.8 45.85-19.15L45.85-19.15ZM44.1-1.15L33.45-11.85 36.25-13.5 48.95-2.1Q48.85-1 48.27-0.35 47.7 0.3 46.75 0.3L46.75 0.3Q46 0.3 45.37-0.1 44.75-0.5 44.1-1.15L44.1-1.15ZM30-1.55L30-13.4 34-12.8 34-0.1Q33.75 0 33.25 0.13 32.75 0.25 32.15 0.25L32.15 0.25Q31.1 0.25 30.55-0.18 30-0.6 30-1.55L30-1.55ZM34-30.95L34-10.85 30-11.45 30-32.4Q30.25-32.5 30.77-32.63 31.3-32.75 31.9-32.75L31.9-32.75Q32.95-32.75 33.47-32.33 34-31.9 34-30.95L34-30.95ZM58.95-5.15L58.95-5.15Q58.1-6.75 56.9-9.47 55.7-12.2 54.42-15.58 53.15-18.95 52-22.45L52-22.45Q52.35-22.95 52.92-23.25 53.5-23.55 54.15-23.55L54.15-23.55Q55-23.55 55.55-23.1 56.1-22.65 56.45-21.6L56.45-21.6Q57.95-17.4 59.6-13.25 61.25-9.1 63.25-4.65L63.25-4.65 63.45-4.65Q64.5-6.75 65.65-9.9 66.8-13.05 67.84-16.55 68.9-20.05 69.59-23.15L69.59-23.15Q69.95-23.3 70.37-23.43 70.8-23.55 71.3-23.55L71.3-23.55Q72.15-23.55 72.7-23.13 73.25-22.7 73.25-21.85L73.25-21.85Q73.25-21.05 72.8-19.18 72.34-17.3 71.57-14.83 70.8-12.35 69.77-9.58 68.75-6.8 67.57-4.13 66.4-1.45 65.2 0.7L65.2 0.7Q62.9 4.95 61 7.23 59.1 9.5 57.5 9.5L57.5 9.5Q56.35 9.5 55.72 8.9 55.1 8.3 54.95 7.5L54.95 7.5Q56.05 6.55 57.42 4.98 58.8 3.4 60.07 1.58 61.35-0.25 62.15-1.9L62.15-1.9Q61.3-2.15 60.57-2.8 59.85-3.45 58.95-5.15ZM96.94-11.35L80.14-9 79.94-12.15 95.04-14.2Q94.84-16.95 93.14-18.73 91.44-20.5 88.44-20.5L88.44-20.5Q85.34-20.5 83.32-18.28 81.29-16.05 81.29-11.9L81.29-11.9 81.29-10.8Q81.64-6.8 83.92-4.73 86.19-2.65 90.14-2.65L90.14-2.65Q92.24-2.65 93.94-3.35 95.64-4.05 96.64-4.85L96.64-4.85Q97.19-4.5 97.52-4.03 97.84-3.55 97.84-2.95L97.84-2.95Q97.84-2 96.77-1.18 95.69-0.35 93.92 0.15 92.14 0.65 89.94 0.65L89.94 0.65Q86.09 0.65 83.27-0.75 80.44-2.15 78.92-4.93 77.39-7.7 77.39-11.7L77.39-11.7Q77.39-14.55 78.22-16.78 79.04-19 80.52-20.55 81.99-22.1 84.04-22.93 86.09-23.75 88.49-23.75L88.49-23.75Q91.54-23.75 93.87-22.45 96.19-21.15 97.52-18.82 98.84-16.5 98.84-13.5L98.84-13.5Q98.84-12.4 98.34-11.93 97.84-11.45 96.94-11.35L96.94-11.35ZM122.89-11.35L106.09-9 105.89-12.15 120.99-14.2Q120.79-16.95 119.09-18.73 117.39-20.5 114.39-20.5L114.39-20.5Q111.29-20.5 109.27-18.28 107.24-16.05 107.24-11.9L107.24-11.9 107.24-10.8Q107.59-6.8 109.87-4.73 112.14-2.65 116.09-2.65L116.09-2.65Q118.19-2.65 119.89-3.35 121.59-4.05 122.59-4.85L122.59-4.85Q123.14-4.5 123.47-4.03 123.79-3.55 123.79-2.95L123.79-2.95Q123.79-2 122.72-1.18 121.64-0.35 119.87 0.15 118.09 0.65 115.89 0.65L115.89 0.65Q112.04 0.65 109.22-0.75 106.39-2.15 104.87-4.93 103.34-7.7 103.34-11.7L103.34-11.7Q103.34-14.55 104.17-16.78 104.99-19 106.47-20.55 107.94-22.1 109.99-22.93 112.04-23.75 114.44-23.75L114.44-23.75Q117.49-23.75 119.82-22.45 122.14-21.15 123.47-18.82 124.79-16.5 124.79-13.5L124.79-13.5Q124.79-12.4 124.29-11.93 123.79-11.45 122.89-11.35L122.89-11.35ZM143.44-18.55L133.94-18.55 133.94-21.8 144.54-21.8Q144.69-21.6 144.84-21.18 144.99-20.75 144.99-20.2L144.99-20.2Q144.99-19.4 144.59-18.98 144.19-18.55 143.44-18.55L143.44-18.55ZM134.64-24.95L134.64-24.95 134.64-19.1 130.69-19.1 130.69-25.15Q130.69-28.1 131.76-29.93 132.84-31.75 134.86-32.63 136.89-33.5 139.69-33.5L139.69-33.5Q142.54-33.5 144.16-32.75 145.79-32 145.79-30.9L145.79-30.9Q145.79-30.35 145.56-29.9 145.34-29.45 144.94-29.05L144.94-29.05Q144.04-29.55 142.69-29.88 141.34-30.2 140.09-30.2L140.09-30.2Q137.04-30.2 135.84-28.95 134.64-27.7 134.64-24.95ZM130.69-1.55L130.69-21.3 134.69-21.3 134.69-0.1Q134.44 0 133.94 0.13 133.44 0.25 132.84 0.25L132.84 0.25Q131.79 0.25 131.24-0.18 130.69-0.6 130.69-1.55L130.69-1.55ZM171.99-11.55L171.99-11.55Q171.99-7.85 170.59-5.1 169.19-2.35 166.64-0.85 164.09 0.65 160.64 0.65L160.64 0.65Q157.19 0.65 154.61-0.85 152.04-2.35 150.64-5.1 149.24-7.85 149.24-11.55L149.24-11.55Q149.24-15.3 150.66-18.03 152.09-20.75 154.66-22.25 157.24-23.75 160.64-23.75L160.64-23.75Q164.04-23.75 166.59-22.25 169.14-20.75 170.56-18.03 171.99-15.3 171.99-11.55ZM160.64-20.45L160.64-20.45Q157.29-20.45 155.31-18.07 153.34-15.7 153.34-11.55L153.34-11.55Q153.34-7.35 155.26-5 157.19-2.65 160.64-2.65L160.64-2.65Q164.04-2.65 165.96-5.03 167.89-7.4 167.89-11.55L167.89-11.55Q167.89-15.7 165.96-18.07 164.04-20.45 160.64-20.45ZM188.88-20.4L188.88-20.4Q185.48-20.4 183.23-18.1 180.98-15.8 180.98-11.5L180.98-11.5Q180.98-7.25 183.16-4.95 185.33-2.65 188.88-2.65L188.88-2.65Q190.98-2.65 192.38-3.23 193.78-3.8 194.88-4.55L194.88-4.55Q195.43-4.25 195.78-3.8 196.13-3.35 196.13-2.7L196.13-2.7Q196.13-1.3 194.06-0.33 191.98 0.65 188.88 0.65L188.88 0.65Q185.43 0.65 182.71-0.68 179.98-2 178.43-4.7 176.88-7.4 176.88-11.5L176.88-11.5Q176.88-15.55 178.48-18.28 180.08-21 182.81-22.38 185.53-23.75 188.78-23.75L188.78-23.75Q191.88-23.75 193.91-22.7 195.93-21.65 195.93-20.3L195.93-20.3Q195.93-19.7 195.58-19.25 195.23-18.8 194.68-18.55L194.68-18.55Q193.58-19.3 192.26-19.85 190.93-20.4 188.88-20.4ZM202.08-8.45L202.08-8.45 202.08-13 206.08-13 206.08-8.65Q206.08-5.45 207.78-4.05 209.48-2.65 212.48-2.65L212.48-2.65Q214.48-2.65 215.88-3.08 217.28-3.5 218.08-3.95L218.08-3.95 218.08-13 222.08-13 222.08-4.1Q222.08-3.05 221.81-2.43 221.53-1.8 220.48-1.2L220.48-1.2Q219.38-0.55 217.33 0.05 215.28 0.65 212.43 0.65L212.43 0.65Q209.13 0.65 206.81-0.33 204.48-1.3 203.28-3.33 202.08-5.35 202.08-8.45ZM222.08-21.5L222.08-10.4 218.08-10.4 218.08-23Q218.33-23.1 218.86-23.23 219.38-23.35 219.93-23.35L219.93-23.35Q221.03-23.35 221.56-22.93 222.08-22.5 222.08-21.5L222.08-21.5ZM206.08-21.5L206.08-10.4 202.08-10.4 202.08-23Q202.33-23.1 202.86-23.23 203.38-23.35 203.98-23.35L203.98-23.35Q205.03-23.35 205.56-22.93 206.08-22.5 206.08-21.5L206.08-21.5ZM245.88-6.15L245.88-6.15Q245.88-2.95 243.53-1.15 241.18 0.65 236.73 0.65L236.73 0.65Q232.93 0.65 230.53-0.53 228.13-1.7 228.13-3.1L228.13-3.1Q228.13-3.7 228.45-4.28 228.78-4.85 229.43-5.2L229.43-5.2Q230.78-4.25 232.58-3.45 234.38-2.65 236.68-2.65L236.68-2.65Q241.88-2.65 241.88-6.15L241.88-6.15Q241.88-7.6 241-8.53 240.13-9.45 238.43-9.85L238.43-9.85 234.28-10.95Q231.23-11.7 229.83-13.28 228.43-14.85 228.43-17.2L228.43-17.2Q228.43-19.85 230.58-21.8 232.73-23.75 237.13-23.75L237.13-23.75Q239.48-23.75 241.23-23.28 242.98-22.8 243.95-22.03 244.93-21.25 244.93-20.35L244.93-20.35Q244.93-19.7 244.6-19.2 244.28-18.7 243.73-18.45L243.73-18.45Q243.13-18.85 242.2-19.33 241.28-19.8 240.03-20.13 238.78-20.45 237.28-20.45L237.28-20.45Q235.08-20.45 233.73-19.6 232.38-18.75 232.38-17.2L232.38-17.2Q232.38-16.1 233.15-15.28 233.93-14.45 235.63-14.05L235.63-14.05 239.08-13.2Q242.48-12.4 244.18-10.68 245.88-8.95 245.88-6.15Z" opacity="1" transform="matrix(1,0,0,1,0,0)" fill="#ffffff" class="wordmark-text-0" data-fill-palette-color="primary" id="text-0"></path></svg></g></svg></g></svg></g></svg></g><g><svg viewBox="0 0 244.43136 170.94382206315788" height="170.94382206315788" width="244.43136"><g><svg xmlns="http://www.w3.org/2000/svg" xmlns:xlink="http://www.w3.org/1999/xlink" version="1.1" x="0" y="0" viewBox="46.5 161.83299999999997 912 637.81" enable-background="new 0 0 1000 1000" xml:space="preserve" height="170.94382206315788" width="244.43136" class="icon-icon-0" data-fill-palette-color="accent" id="icon-0"><g fill="#0718c4" data-fill-palette-color="accent"><path d="M829.205 660.75c-7.779 0-15.237 1.884-21.879 5.439C803.795 633.519 776.049 608 742.455 608c-22.428 0-43.126 11.581-54.997 30.154-23.43-1.508-45.698 7.951-60.858 25.083-6.479-2.462-13.379-3.737-20.395-3.737-31.706 0-57.5 25.794-57.5 57.5s25.794 57.5 57.5 57.5c8.999 0 17.889-2.147 25.874-6.167 7.876 7.224 17.181 12.665 27.418 15.99 6.697 4.047 14.334 6.177 22.208 6.177 6.997 0 13.89-1.711 20.055-4.965 6.163-1.618 12.138-4.047 17.712-7.181 13.083 13.502 31.146 21.289 50.306 21.289 29.778 0 56.09-18.982 65.947-46.349 22.563-3.181 39.98-22.617 39.98-46.045C875.705 681.609 854.846 660.75 829.205 660.75zM829.205 728.75c-0.587 0-1.213-0.03-1.914-0.092l-11.124-0.983-2.226 10.943c-4.246 20.874-22.819 36.025-44.164 36.025-15.045 0-29.044-7.471-37.448-19.984l-7.613-11.336-10.62 8.582c-5.776 4.668-12.637 8.035-19.839 9.737l-1.833 0.434-1.624 0.954c-2.749 1.616-5.895 2.47-9.095 2.47-3.569 0-7.018-1.042-9.973-3.015l-1.562-1.043-1.8-0.537c-9.668-2.889-18.155-8.588-24.545-16.481l-7.781-9.611-9.694 7.677c-5.792 4.587-12.758 7.011-20.146 7.011-17.921 0-32.5-14.579-32.5-32.5s14.579-32.5 32.5-32.5c6.169 0 12.178 1.744 17.377 5.044l10.439 6.626 6.739-10.367C650.043 671.524 665.723 663 682.705 663c3.083 0 6.223 0.298 9.332 0.885l9.67 1.825 4.044-8.972c6.501-14.42 20.908-23.738 36.704-23.738 22.194 0 40.25 18.056 40.25 40.25 0 1.067-0.054 2.21-0.163 3.492l-0.732 8.539 7.702 3.761c2.643 1.29 5.182 2.858 7.547 4.661l8.888 6.774 7.724-8.077c4.102-4.288 9.618-6.65 15.535-6.65 11.855 0 21.5 9.645 21.5 21.5S841.061 728.75 829.205 728.75z" fill="#ffffff" data-fill-palette-color="accent"></path><path d="M114.749 240.48c18.664-0.321 32.247 7.855 41.45 24.946l22.864-9.879c-0.047-0.143-4.728-14.707-3.875-30.89 1.059-20.121 9.729-33.038 26.504-39.49l-8.975-23.334c-25.839 9.938-40.931 31.783-42.496 61.51-0.011 0.207-0.021 0.413-0.03 0.619-12.609-7.033-25.851-8.759-36.834-8.457-20.441 0.568-36.896 8.405-37.587 8.738L86.6 246.776C86.727 246.715 99.532 240.728 114.749 240.48z" fill="#ffffff" data-fill-palette-color="accent"></path><path d="M300.491 316.087l23.139 9.209c1.063-2.101 26.502-51.251 65.781-33.793l10.153-22.846c-25.3-11.243-51.417-6.47-73.543 13.446-0.153 0.138-0.307 0.277-0.459 0.416-3.943-13.889-12.089-24.48-20.065-32.026-14.855-14.053-32.033-20.146-32.757-20.399l-8.234 23.605c0.127 0.044 12.978 4.708 23.812 14.956C302.156 281.747 306.139 297.262 300.491 316.087z" fill="#ffffff" data-fill-palette-color="accent"></path><path d="M897.064 442c-7.625-25.455-30.949-44.194-58.683-44.907C832.744 373.551 811.522 356 786.277 356c-16.784 0-32.255 7.936-42.212 20.634C729.222 363.49 709.931 356 689.705 356c-16.83 0-33.004 5.066-46.773 14.652-5.318 3.703-10.132 7.978-14.38 12.73-30.407-40.998-79.134-67.633-133.981-67.633-61.954 0-116.118 33.966-144.866 84.25H236.5v25h101.541 26.979H510.5v-25H379.394c25.747-35.847 67.772-59.25 115.177-59.25 47.773 0 90.096 23.76 115.789 60.08-28.139 4.706-49.654 29.217-49.654 58.671 0 32.809 26.691 59.5 59.5 59.5 3.932 0 7.831-0.398 11.645-1.161C617.358 574.1 569.113 616.945 510.081 623.4c2.994-7.42 4.624-15.497 4.624-23.9 0-35.014-28.486-63.5-63.5-63.5-8.53 0-16.779 1.656-24.439 4.863-13.462-32.188-40.781-56.32-73.729-66.091 0.459-8.474 1.661-16.754 3.548-24.772H331.01c-1.315 6.632-2.238 13.404-2.742 20.291-2.668-0.186-5.355-0.291-8.063-0.291-38.892 0-74.822 19.47-96.135 51.458-8.042-2.298-16.367-3.458-24.865-3.458-41.05 0-75.798 27.476-86.836 65h26.505c9.964-23.485 33.255-40 60.332-40 8.833 0 17.398 1.726 25.458 5.129l10.462 4.417 5.398-9.991C256.371 513.222 286.903 495 320.205 495c41.126 0 77.125 27.746 87.542 67.473l4.819 18.375 14.969-11.696c6.825-5.333 15.01-8.151 23.67-8.151 21.229 0 38.5 17.271 38.5 38.5 0 16.917-10.833 31.683-26.958 36.741l-7.554 2.37-1.086 7.842C449.959 676.41 423.992 699 393.705 699c-17.387 0-34.001-7.466-45.583-20.483l-4.668-5.248-6.91 1.259c-5.365 0.978-10.862 1.473-16.339 1.473-1.985 0-4.067-0.072-6.188-0.215l-7.153-0.481-4.027 5.932c-7.207 10.615-19.154 16.952-31.958 16.952-14.823 0-28.101-8.274-34.652-21.595l-4.892-9.947-10.461 3.668c-6.976 2.446-14.267 3.687-21.669 3.687-27.456 0-51.006-16.988-60.728-41h130.146v-25H46.5v25h65.577c10.71 38.036 45.714 66 87.128 66 6.777 0 13.485-0.753 20.047-2.244 11.826 16.521 30.8 26.432 51.627 26.432 18.684 0 36.254-8.182 48.271-22.192 5.104 0.045 10.118-0.238 15.13-0.85C350.223 715.382 371.516 724 393.705 724c40.155 0 74.927-28.18 83.796-66.677 4.82-2.179 9.276-4.919 13.31-8.121 1.25 0.028 2.502 0.048 3.759 0.048 80.034 0 147.062-56.683 163.09-132.008C666.973 538.503 688.345 553 712.205 553c10.805 0 21.139-2.841 30.273-8.272 8.264 2.838 16.889 4.272 25.727 4.272 22.737 0 44.377-9.839 59.38-26.671 3.031 0.446 6.09 0.671 9.156 0.671 23.056 0 43.245-12.464 54.216-31h-33.771c-5.906 3.791-12.92 6-20.444 6-3.573 0-7.138-0.508-10.592-1.509l-8.486-2.459-5.15 7.179C802.277 515.48 785.713 524 768.205 524c-7.703 0-15.167-1.589-22.184-4.722l-6.828-3.05-5.916 4.575c-6.087 4.708-13.374 7.196-21.072 7.196-16.145 0-30.324-11.437-33.718-27.194l-1.463-6.793-6.543-2.343c-4.555-1.631-8.896-3.847-12.9-6.586l-7.857-5.373-7.269 6.145c-6.214 5.253-14.116 8.146-22.25 8.146-19.023 0-34.5-15.477-34.5-34.5s15.477-34.5 34.5-34.5c1.163 0 2.343 0.059 3.504 0.176l9.442 0.949 3.452-8.84C645.211 395.243 666.055 381 689.705 381c18.634 0 36.132 9.155 46.807 24.489l15.082 21.666 7.202-25.396C762.263 389.536 773.563 381 786.277 381c15.754 0 28.571 12.817 28.571 28.516l-0.323 16.083 15.12-2.854c2.365-0.447 4.753-0.673 7.096-0.673 14.41 0 26.97 8.07 33.398 19.928H772.5v25h186v-25H897.064z" fill="#ffffff" data-fill-palette-color="accent"></path></g></svg></g></svg></g></svg></g><defs></defs></svg><rect width="395.52" height="102.99431218957362" fill="none" stroke="none" visibility="hidden"></rect></g></svg></g></svg>